{"title":"The Host (2013)","uid":8392612,"size":1235477391,"categoryP":"video","categoryS":"movies","magnet":"?xt=urn:btih:e0c1905c5b5e414fb5914e177d7970a107511bc8&amp;dn=The+Host+%282013%29&amp;tr=udp%3A%2F%2Ftracker.openbittorrent.com%3A80&amp;tr=udp%3A%2F%2Fopen.demonii.com%3A1337&amp;tr=udp%3A%2F%2Ftracker.coppersurfer.tk%3A6969&amp;tr=udp%3A%2F%2Fexodus.desync.com%3A6969","seeders":1,"leechers":0,"uploader":"WICKED-MIND","files":2,"time":1366479504,"description":"General\nComplete name                    : The Host 2013 TS XviD MP3                                    WICKED.MIND.avi\nFormat                           : AVI\nFormat/Info                      : Audio Video Interleave\nFormat profile                   : OpenDML\nFile size                        : 1.15 GiB\nDuration                         : 1h 54mn\nOverall bit rate                 : 1 438 Kbps\nWriting application              : Lavf52.57.1\n\nVideo\nID                               : 0\nFormat                           : MPEG-4 Visual\nCodec ID                         : FMP4\nDuration                         : 1h 54mn\nBit rate                         : 222 Kbps\nWidth                            : 848 pixels\nHeight                           : 480 pixels\nDisplay aspect ratio             : 16:9\nFrame rate                       : 23.976 fps\nColor space                      : YUV\nChroma subsampling               : 4:2:0\nCompression mode                 : Lossy\nBits/(Pixel*Frame)               : 0.023\nStream size                      : 182 MiB (15%)\n\nAudio\nID                               : 1\nFormat                           : MPEG Audio\nFormat version                   : Version 1\nFormat profile                   : Layer 3\nMode                             : Joint stereo\nMode extension                   : MS Stereo\nCodec ID                         : 55\nCodec ID/Hint                    : MP3\nDuration                         : 16mn 56s\nBit rate mode                    : Constant\nBit rate                         : 128 Kbps\nChannel(s)                       : 2 channels\nSampling rate                    : 48.0 KHz\nCompression mode                 : Lossy\nStream size                      : 15.5 MiB (1%)\nAlignment                        : Aligned on interleaves\nInterleave, duration             : 32 ms (0.77 video frame)\n\nStoryline:\n\nWhen an unseen enemy threatens mankind by taking over their bodies and erasing their memories, Melanie will risk everything to protect the people she cares most about, proving that love can conquer all in a dangerous new world.\n\n\nDirector:\nAndrew Niccol\nWriters:\nStephenie Meyer (novel), Andrew Niccol (screenplay)\nStars:\nSaoirse Ronan, Diane Kruger, Max Irons","torrent":{"xt":"urn:btih:e0c1905c5b5e414fb5914e177d7970a107511bc8","amp;dn":"The+Host+%282013%29","amp;tr":["udp%3A%2F%2Ftracker.openbittorrent.com%3A80","udp%3A%2F%2Fopen.demonii.com%3A1337","udp%3A%2F%2Ftracker.coppersurfer.tk%3A6969","udp%3A%2F%2Fexodus.desync.com%3A6969"],"infoHash":"e0c1905c5b5e414fb5914e177d7970a107511bc8","infoHashBuffer":{"type":"Buffer","data":[224,193,144,92,91,94,65,79,181,145,78,23,125,121,112,161,7,81,27,200]},"announce":[],"urlList":[]}}